<svg width="40" height="40" viewBox="0 0 40 40" fill="none" xmlns="http://www.w3.org/2000/svg">
<path d="M37.2667 13.7833L36.7834 9.16658C36.0834 4.13325 33.8 2.08325 28.9167 2.08325H24.9834H22.5167H17.45H14.9834H10.9834C6.08336 2.08325 3.81669 4.13325 3.10003 9.21659L2.65003 13.7999C2.48336 15.5833 2.96669 17.3166 4.01669 18.6666C5.28336 20.3166 7.23336 21.2499 9.40003 21.2499C11.5 21.2499 13.5167 20.1999 14.7834 18.5166C15.9167 20.1999 17.85 21.2499 20 21.2499C22.15 21.2499 24.0334 20.2499 25.1834 18.5833C26.4667 20.2333 28.45 21.2499 30.5167 21.2499C32.7334 21.2499 34.7334 20.2666 35.9834 18.5333C36.9834 17.1999 37.4334 15.5166 37.2667 13.7833Z" fill="#EA821B"/>
<path d="M18.9167 27.7667C16.8 27.9834 15.2 29.7834 15.2 31.9167V36.4834C15.2 36.9334 15.5667 37.3001 16.0167 37.3001H23.9667C24.4167 37.3001 24.7833 36.9334 24.7833 36.4834V32.5001C24.8 29.0167 22.75 27.3667 18.9167 27.7667Z" fill="#EA821B"/>
<path d="M35.6167 23.9999V28.9666C35.6167 33.5666 31.8834 37.2999 27.2834 37.2999C26.8334 37.2999 26.4667 36.9332 26.4667 36.4832V32.4999C26.4667 30.3666 25.8167 28.6999 24.55 27.5666C23.4334 26.5499 21.9167 26.0499 20.0334 26.0499C19.6167 26.0499 19.2 26.0666 18.75 26.1166C15.7834 26.4166 13.5334 28.9166 13.5334 31.9166V36.4832C13.5334 36.9332 13.1667 37.2999 12.7167 37.2999C8.1167 37.2999 4.38336 33.5666 4.38336 28.9666V24.0332C4.38336 22.8666 5.53336 22.0832 6.61669 22.4666C7.06669 22.6166 7.51669 22.7332 7.98336 22.7999C8.18336 22.8332 8.40003 22.8666 8.60003 22.8666C8.86669 22.8999 9.13336 22.9166 9.40003 22.9166C11.3334 22.9166 13.2334 22.1999 14.7334 20.9666C16.1667 22.1999 18.0334 22.9166 20 22.9166C21.9834 22.9166 23.8167 22.2332 25.25 20.9999C26.75 22.2166 28.6167 22.9166 30.5167 22.9166C30.8167 22.9166 31.1167 22.8999 31.4 22.8666C31.6 22.8499 31.7834 22.8332 31.9667 22.7999C32.4834 22.7332 32.95 22.5832 33.4167 22.4332C34.5 22.0666 35.6167 22.8666 35.6167 23.9999Z" fill="#EA821B"/>
</svg>
